<?xml version="1.0" encoding="UTF-8" standalone="no"?>
<!-- Created with Inkscape (http://www.inkscape.org/) -->

<svg
   width="297.53488mm"
   height="109.78909mm"
   viewBox="0 0 297.53488 109.78909"
   version="1.1"
   id="svg1"
   xml:space="preserve"
   inkscape:version="1.3 (0e150ed, 2023-07-21)"
   sodipodi:docname="logo.svg"
   xmlns:inkscape="http://www.inkscape.org/namespaces/inkscape"
   xmlns:sodipodi="http://sodipodi.sourceforge.net/DTD/sodipodi-0.dtd"
   xmlns="http://www.w3.org/2000/svg"
   xmlns:svg="http://www.w3.org/2000/svg"><sodipodi:namedview
     id="namedview1"
     pagecolor="#ffffff"
     bordercolor="#000000"
     borderopacity="0.25"
     inkscape:showpageshadow="2"
     inkscape:pageopacity="0.0"
     inkscape:pagecheckerboard="0"
     inkscape:deskcolor="#d1d1d1"
     inkscape:document-units="mm"
     inkscape:zoom="0.91415048"
     inkscape:cx="399.82476"
     inkscape:cy="211.12498"
     inkscape:window-width="1440"
     inkscape:window-height="757"
     inkscape:window-x="0"
     inkscape:window-y="25"
     inkscape:window-maximized="0"
     inkscape:current-layer="g6"
     showgrid="false"
     showguides="true"><sodipodi:guide
       position="-1.2943502e-07,155.25824"
       orientation="1,0"
       id="guide5"
       inkscape:locked="false" /><sodipodi:guide
       position="297.5349,224.14278"
       orientation="1,0"
       id="guide6"
       inkscape:locked="false" /></sodipodi:namedview><defs
     id="defs1" /><g
     id="g6"
     inkscape:export-filename="HTTP5222_Assignment1/public/img/logo.svg"
     inkscape:export-xdpi="96"
     inkscape:export-ydpi="96"
     transform="translate(-1.2943502e-7,-14.14278)"><g
       id="g11"
       transform="matrix(0.88816016,0,0,0.88816016,-31.16469,-77.078912)"
       style="fill:#1a1a1a"><path
         style="fill:#1a1a1a;stroke:#24a3fa;stroke-width:0"
         d="m 37.67756,109.21686 c 0.39574,-0.39573 1.57913,-0.71951 2.62976,-0.71951 1.78037,0 1.91025,-0.13165 1.91025,-1.9363 0,-3.93267 -0.52956,-3.85232 25.38937,-3.85232 25.51806,0 25.74592,0.0274 28.6165,3.43888 2.18602,2.59793 2.20761,6.70678 0.0487,9.27246 -2.56697,3.05067 -4.06845,3.49679 -11.76897,3.49679 -4.22275,0 -6.97508,0.2264 -6.97508,0.57375 0,0.31557 1.88437,4.35313 4.18749,8.97236 l 4.1875,8.3986 h 4.36662 4.36661 l 1.67998,-3.90732 c 4.68843,-10.90441 13.9318,-19.2676 25.20528,-22.80515 6.08126,-1.90825 15.87656,-1.93184 21.63003,-0.0521 13.81429,4.51338 23.75213,15.08426 27.3282,29.06899 1.38472,5.41515 0.88669,15.07537 -1.05999,20.5606 -6.75084,19.02203 -26.28683,30.25316 -45.17909,25.97321 -12.53166,-2.83899 -22.73935,-11.43346 -27.92653,-23.51305 l -1.67788,-3.90732 H 90.2697 85.90308 l -4.1875,8.3986 c -2.30312,4.61924 -4.18749,8.6568 -4.18749,8.97236 0,0.34736 2.75233,0.57375 6.97508,0.57375 7.70052,0 9.202,0.44612 11.76897,3.4968 2.15887,2.56567 2.13728,6.67453 -0.0487,9.27246 -2.87168,3.41279 -3.08942,3.43887 -28.71708,3.43887 -21.90802,0 -23.43281,-0.0663 -24.33078,-1.05859 -0.52691,-0.58222 -0.95801,-1.88466 -0.95801,-2.89431 0,-1.69938 -0.14521,-1.83572 -1.95514,-1.83572 -2.26333,0 -3.4238,-1.10632 -3.15434,-3.00716 0.1587,-1.1195 0.5852,-1.36295 2.64931,-1.5123 2.34123,-0.16939 2.46059,-0.26734 2.46903,-2.02601 0.0165,-3.44228 0.30189,-3.55732 9.60994,-3.87404 l 8.50632,-0.28943 4.25125,-8.33325 c 2.33819,-4.5833 4.25126,-8.55574 4.25126,-8.82765 0,-0.27191 -1.77644,-0.49438 -3.94764,-0.49438 -3.48937,0 -4.09371,-0.16799 -5.20593,-1.44715 -0.69205,-0.79594 -1.8461,-1.45288 -2.56455,-1.45987 -1.93258,-0.0188 -5.735,-1.93063 -7.37115,-3.70615 -2.58356,-2.80364 -1.59495,-7.57369 2.06695,-9.97306 0.81682,-0.5352 2.80385,-1.31517 4.41564,-1.73325 1.61672,-0.41938 3.29762,-1.2843 3.74939,-1.92929 0.68784,-0.98203 1.46203,-1.16911 4.83808,-1.16911 2.21057,0 4.01921,-0.22704 4.01921,-0.50453 0,-0.27749 -1.90647,-4.24993 -4.2366,-8.82764 l -4.2366,-8.32311 -8.52097,-0.28943 c -9.15703,-0.31104 -9.60645,-0.47478 -9.6246,-3.50671 -0.008,-1.26822 -0.36189,-1.55895 -2.46903,-2.02602 -2.01728,-0.44715 -2.49069,-0.80657 -2.62975,-1.99654 -0.0933,-0.79817 0.15419,-1.775 0.54991,-2.17073 z m 32.05744,4.94407 c 24.25273,-0.17873 23.39389,-0.0532 23.41353,-3.42197 0.0176,-3.02549 -0.28034,-3.06891 -21.62166,-3.15075 -10.86695,-0.0417 -20.73492,0.0489 -21.92882,0.20124 l -2.17073,0.277 v 3.12944 3.12944 z m -0.6545,73.50298 c 18.41017,0.13093 21.55129,0.0291 22.72032,-0.73692 1.48923,-0.97578 1.85234,-3.60803 0.66194,-4.79844 -0.51612,-0.51612 -6.39993,-0.69463 -22.89529,-0.69463 H 47.36682 l 0.17496,3.03902 0.17497,3.03903 z M 54.50246,149.85313 c 0.70759,0.49562 2.14027,0.90112 3.18374,0.90112 h 1.89722 v -3.18374 -3.18374 H 57.6862 c -2.46015,0 -4.47026,1.43161 -4.47026,3.18374 0,0.7714 0.56816,1.77946 1.28652,2.28262 z m 24.47282,3.79543 c 15.57789,0 15.40294,0.031 14.40961,-2.55753 -0.29438,-0.76715 -1.52095,-0.91564 -7.56326,-0.91564 -7.83725,0 -9.45122,-0.44483 -9.45122,-2.60488 0,-2.16005 1.61397,-2.60488 9.45122,-2.60488 6.04231,0 7.26888,-0.14849 7.56326,-0.91563 0.99333,-2.58859 1.16828,-2.55754 -14.40961,-2.55754 H 64.21431 v 6.07805 6.07805 z m -8.6793,-25.46268 4.34509,8.67569 h 2.60125 c 1.80875,0 2.60125,-0.24012 2.60125,-0.78815 0,-0.43347 -1.84173,-4.47103 -4.09272,-8.97235 l -4.09273,-8.18421 h -2.85361 c -1.56949,0 -2.85362,0.1335 -2.85362,0.29666 0,0.16317 1.95529,4.20073 4.34509,8.97236 z m -1.49147,48.03828 h 2.85361 l 4.09273,-8.18421 c 2.25099,-4.50131 4.09272,-8.53887 4.09272,-8.97235 0,-0.85262 -3.81123,-1.11602 -4.99394,-0.34514 -0.62029,0.4043 -8.80471,16.15549 -8.86841,17.06756 -0.0167,0.23878 1.2538,0.43414 2.82329,0.43414 z m 34.15218,-31.25853 c 4.66379,0 6.40883,0.70928 6.40883,2.60488 0,1.8956 -1.74504,2.60488 -6.40883,2.60488 h -4.58954 v 1.67561 c 0,2.60158 2.21219,9.24072 4.38965,13.17404 3.8673,6.98583 11.69225,13.07338 19.92254,15.49909 19.14998,5.64405 39.46122,-6.5586 43.1328,-25.91348 1.08124,-5.6998 1.08124,-8.38048 0,-14.08027 -2.26298,-11.9294 -10.64866,-21.41731 -22.39585,-25.33961 -3.73009,-1.24546 -5.5023,-1.48366 -11.03802,-1.48366 -4.3803,0 -7.65017,0.31339 -9.73858,0.93337 -8.40314,2.49462 -15.67396,8.13511 -19.91064,15.44608 -1.94764,3.36093 -4.30043,10.41375 -4.336,12.99777 l -0.0259,1.8813 z"
         id="path1"
         inkscape:label="Enterprise" /><rect
         style="fill:#ffffff;stroke:#24a3fa;stroke-width:0"
         id="rect10"
         width="20.523512"
         height="8.104063"
         x="136.96198"
         y="175.39508" /><path
         style="fill:#1a1a1a;stroke:#24a3fa;stroke-width:0"
         d="m 92.777249,141.58217 c 0.512461,-3.51932 1.438589,-7.15665 2.303306,-9.04613 0.182158,-0.39803 0.331196,-0.78094 0.331196,-0.85091 0,-0.07 0.331887,-0.82947 0.737528,-1.68775 1.047302,-2.21597 2.870664,-5.21887 4.449881,-7.32853 1.45728,-1.94675 5.37019,-5.99073 6.86979,-7.0999 0.50525,-0.37371 0.97031,-0.73475 1.03347,-0.8023 0.22971,-0.24571 2.53091,-1.83191 2.65767,-1.83191 0.0717,0 0.56234,-0.28923 1.09036,-0.64273 0.52801,-0.35351 1.86355,-1.07958 2.96787,-1.61349 10.39069,-5.02369 22.62615,-5.31898 33.24509,-0.80233 2.35844,1.00313 7.98927,4.22945 8.49746,4.86881 0.0632,0.0795 0.52822,0.45019 1.03347,0.82385 1.4834,1.09703 5.40067,5.14835 6.86858,7.10363 1.39283,1.85529 3.43416,5.14077 4.08093,6.56819 2.16153,4.77049 3.10993,7.93632 3.74441,12.49908 0.73752,5.30376 0.37737,10.2639 -1.16019,15.97887 -0.71038,2.64039 -1.0692,3.59723 -2.58374,6.88982 -0.76376,1.66043 -3.94411,6.71196 -4.62688,7.34915 -0.51032,0.47625 -1.61506,1.89556 -1.61506,2.07494 0,0.13524 1.83561,0.22167 4.70805,0.22167 4.40183,0 4.73792,0.0299 5.16737,0.45932 0.59511,0.59512 0.58503,1.42266 -0.0241,1.97394 -0.46715,0.42281 -1.22102,0.43973 -22.44935,0.50393 -12.08129,0.0365 -22.31136,0.004 -22.7335,-0.0718 -0.59054,-0.10634 -1.4246,-0.79529 -3.61716,-2.98785 -3.29186,-3.29186 -3.36111,-3.47473 -1.93099,-5.09943 0.69999,-0.79522 0.91864,-1.23599 0.91864,-1.85177 0,-0.74647 -0.39875,-1.20992 -5.22478,-6.07257 -2.87363,-2.89543 -5.50386,-5.41094 -5.84495,-5.59002 -0.96318,-0.50571 -1.35538,-0.40326 -2.70992,0.70786 -0.69293,0.56841 -1.43259,1.03347 -1.64369,1.03347 -0.2111,0 -0.75026,-0.35585 -1.19812,-0.79079 -1.44799,-1.40618 -2.20359,-1.59435 -3.21323,-0.80016 -0.47943,0.37712 -0.60512,0.67325 -0.60512,1.42569 0,0.77072 0.14857,1.10303 0.78831,1.76321 1.23839,1.27794 1.26663,1.85076 0.15091,3.06117 -0.77758,0.84359 -0.93922,1.17938 -0.93922,1.95117 0,0.91006 0.12846,1.06092 5.40248,6.34439 2.97136,2.9767 5.65093,5.47454 5.9546,5.55075 0.77405,0.19427 1.4215,-0.0593 2.39335,-0.9373 0.80918,-0.73104 1.15802,-0.88814 1.84317,-0.83009 0.17663,0.015 1.89236,1.57742 3.81274,3.47212 l 3.49159,3.44491 h 11.87206 11.87204 l 0.56372,0.56372 c 0.66093,0.66093 0.69712,0.9809 0.19244,1.70143 -0.5971,0.85248 -4.26593,2.23109 -8.5855,3.22612 -11.08039,2.55239 -23.77621,-0.32257 -32.87118,-7.44366 -6.55639,-5.13345 -11.345542,-11.88279 -13.851502,-19.5209 -0.469697,-1.43162 -0.678715,-2.20312 -1.151079,-4.24872 -0.787075,-3.40847 -1.007175,-9.87483 -0.46326,-13.61018 z m 23.181391,8.32798 c 0.58102,2.97271 1.19538,4.51664 2.65103,6.66218 0.95888,1.41333 2.99554,3.51527 3.95948,4.08638 0.34736,0.20581 0.63157,0.45526 0.63157,0.55434 0,0.0991 0.1054,0.18014 0.23422,0.18014 0.12882,0 0.62707,0.24799 1.10722,0.55109 3.51467,2.21872 9.54544,2.61318 14.39033,0.94124 2.46267,-0.84985 6.13239,-3.70422 7.71248,-5.99889 2.00288,-2.90868 3.19633,-6.62832 3.19633,-9.96208 0,-1.43907 -0.49807,-4.24173 -1.00964,-5.68124 -1.31423,-3.69812 -4.50212,-7.42894 -7.83639,-9.17098 -3.22954,-1.68732 -4.58412,-2.01767 -8.26363,-2.01531 -2.77493,0.002 -3.45113,0.0784 -4.93771,0.55983 -8.36036,2.70726 -13.4541,11.01082 -11.83529,19.2933 z m 36.95071,-20.49107 c 3.39928,4.02956 4.93334,7.16022 6.12902,12.50792 0.24682,1.10391 0.44915,2.75746 0.44962,3.67457 0.001,2.29904 0.51145,3.16027 1.87239,3.16027 1.58644,0 1.80204,-0.36935 1.7971,-3.0786 -0.005,-2.80843 -0.43765,-5.39009 -1.37862,-8.22879 -0.62304,-1.87957 -2.16501,-5.37354 -2.51003,-5.68751 -0.0694,-0.0632 -0.26824,-0.3732 -0.44185,-0.68899 -1.34258,-2.44193 -4.56034,-6.12398 -5.42586,-6.20875 -1.40323,-0.13743 -2.18178,0.48223 -2.18178,1.73654 0,0.672 0.28791,1.15128 1.69001,2.81334 z"
         id="path7" /><path
         style="fill:#1a1a1a;stroke:#24a3fa;stroke-width:0"
         d="m 129.71531,146.0112 c 0.12838,-0.34445 0.3007,-0.69356 0.38293,-0.77578 0.0822,-0.0822 0.18044,-0.247 0.21826,-0.36614 0.0378,-0.11915 0.22206,-0.28014 0.40943,-0.35775 0.18737,-0.0776 0.34067,-0.17669 0.34067,-0.22019 0,-0.0983 1.38999,-0.58204 1.67247,-0.58204 0.26375,0 1.53188,0.44798 1.74856,0.6177 0.2117,0.16581 0.73317,0.68728 0.89898,0.89898 0.18388,0.23476 0.6177,1.49466 0.6177,1.7939 0,0.13876 -0.0453,0.34201 -0.10073,0.45168 -0.0554,0.10966 -0.1655,0.40257 -0.24465,0.6509 -0.15279,0.47933 -0.21997,0.58048 -0.71314,1.07365 -0.49318,0.49318 -0.59432,0.56036 -1.07366,0.71314 -0.24833,0.0792 -0.54123,0.18925 -0.6509,0.24465 -0.30924,0.15623 -0.64539,0.12153 -1.39261,-0.14376 -0.72141,-0.25613 -0.81144,-0.31147 -1.31376,-0.80753 -0.48679,-0.48072 -0.55164,-0.58604 -0.81138,-1.31762 -0.29352,-0.82671 -0.29206,-1.05847 0.0118,-1.87379 z"
         id="path9"
         inkscape:export-filename="vynlfrontier.svg"
         inkscape:export-xdpi="96"
         inkscape:export-ydpi="96" /></g><text
       xml:space="preserve"
       style="font-size:45.2327px;font-family:Monospace;-inkscape-font-specification:Monospace;fill:#1a1a1a;stroke:#24a3fa;stroke-width:0"
       x="140.87894"
       y="50.471478"
       id="text1"><tspan
         sodipodi:role="line"
         style="font-style:normal;font-variant:normal;font-weight:normal;font-stretch:condensed;font-size:45.2327px;font-family:'Final Frontier Old Style';-inkscape-font-specification:'Final Frontier Old Style Condensed';stroke-width:0;fill:#1a1a1a"
         x="140.87894"
         y="50.471478"
         id="tspan2">VINYL</tspan></text><text
       xml:space="preserve"
       style="font-size:29.3199px;font-family:Monospace;-inkscape-font-specification:Monospace;fill:#1a1a1a;stroke:#24a3fa;stroke-width:0"
       x="20.92078"
       y="123.93188"
       id="text1-4"><tspan
         sodipodi:role="line"
         style="font-style:normal;font-variant:normal;font-weight:normal;font-stretch:condensed;font-size:29.3199px;font-family:'Final Frontier Old Style';-inkscape-font-specification:'Final Frontier Old Style Condensed';stroke-width:0;fill:#1a1a1a"
         x="20.92078"
         y="123.93188"
         id="tspan2-1">music · video · collectibles</tspan></text><text
       xml:space="preserve"
       style="font-style:normal;font-variant:normal;font-weight:normal;font-stretch:normal;font-size:50.8px;font-family:Federation;-inkscape-font-specification:Federation;fill:#ff7f2a;stroke:#24a3fa;stroke-width:0"
       x="75.252014"
       y="198.54955"
       id="text4"><tspan
         sodipodi:role="line"
         id="tspan4"
         style="font-size:50.8px;stroke-width:0"
         x="75.252014"
         y="198.54955" /></text><text
       xml:space="preserve"
       style="font-style:normal;font-variant:normal;font-weight:normal;font-stretch:condensed;font-size:55.3807px;font-family:'Final Frontier Old Style';-inkscape-font-specification:'Final Frontier Old Style Condensed';fill:#1a1a1a;stroke:#24a3fa;stroke-width:0"
       x="139.93631"
       y="92.121353"
       id="text3"><tspan
         sodipodi:role="line"
         id="tspan3"
         style="stroke-width:0;fill:#1a1a1a"
         x="139.93631"
         y="92.121353">FRONTIER</tspan><tspan
         sodipodi:role="line"
         style="stroke-width:0;fill:#1a1a1a"
         x="139.93631"
         y="161.34723"
         id="tspan5" /></text><rect
       style="fill:#1a1a1a;stroke:#24a3fa;stroke-width:0"
       id="rect5"
       width="297.53488"
       height="2.8943083"
       x="6.2943502e-07"
       y="96.669899"
       inkscape:export-filename="HTTP5222_Assignment1/public/img/logo.svg"
       inkscape:export-xdpi="96"
       inkscape:export-ydpi="96" /></g></svg>
